<?xml version="1.0" encoding="utf-8"?>
<svg version="1.1" xmlns:xlink="http://www.w3.org/1999/xlink" width="90px" height="90px" xmlns="http://www.w3.org/2000/svg">
  <defs>
    <mask fill="white" id="clip52">
      <path d="M 6 91  C 3.225 91  1 88.775  1 86  L 1 6  C 1 3.225  3.225 1  6 1  L 86 1  C 88.775 1  91 3.225  91 6  L 91 86  C 91 88.775  88.775 91  86 91  " fill-rule="evenodd" />
    </mask>
  </defs>
  <g transform="matrix(1 0 0 1 -1 -1 )">
    <path d="M 1 1  L 91 1  L 91 91  L 1 91  L 1 1  " fill-rule="nonzero" fill="#cccccc" stroke="none" mask="url(#clip52)" />
    <path d="M 7 7  L 85 7  L 85 85  L 7 85  L 7 7  " fill-rule="nonzero" fill="#ffffff" stroke="none" mask="url(#clip52)" />
    <path d="M 54.55 28  C 50.77 28  47.8 25.03  47.8 21.25  C 47.8 17.47  50.77 14.5  54.55 14.5  C 58.33 14.5  61.3 17.47  61.3 21.25  C 61.3 25.03  58.33 28  54.55 28  " fill-rule="nonzero" fill="#cccccc" stroke="none" mask="url(#clip52)" />
    <path d="M 10 83  L 10 42.85  L 28.25 24.6  L 53.8 39.2  L 68.4 35.55  L 83 39.2  L 83 83  L 10 83  " fill-rule="nonzero" fill="#169bd5" stroke="none" mask="url(#clip52)" />
  </g>
</svg>