<?xml version="1.0" encoding="utf-8"?>
<svg version="1.1" xmlns:xlink="http://www.w3.org/1999/xlink" width="170px" height="90px" xmlns="http://www.w3.org/2000/svg">
  <defs>
    <mask fill="white" id="clip23">
      <path d="M 14 91  C 8.45 91  4 86.55  4 81  L 4 11  C 4 5.45  8.45 1  14 1  L 164 1  C 169.55 1  174 5.45  174 11  L 174 81  C 174 86.55  169.55 91  164 91  " fill-rule="evenodd" />
    </mask>
  </defs>
  <g transform="matrix(1 0 0 1 -4 -1 )">
    <path d="M 4 1  L 174 1  L 174 91  L 4 91  L 4 1  " fill-rule="nonzero" fill="#cccccc" stroke="none" mask="url(#clip23)" />
    <path d="M 10 7  L 168 7  L 168 85  L 10 85  L 10 7  " fill-rule="nonzero" fill="#ffffff" stroke="none" mask="url(#clip23)" />
    <path d="M 99.15 28  C 95.37 28  92.4 25.03  92.4 21.25  C 92.4 17.47  95.37 14.5  99.15 14.5  C 102.93 14.5  105.9 17.47  105.9 21.25  C 105.9 25.03  102.93 28  99.15 28  " fill-rule="nonzero" fill="#cccccc" stroke="none" mask="url(#clip23)" />
    <path d="M 13 83  L 13 42.85  L 51.25 24.6  L 104.8 59.8117647058824  L 135.4 35.55  L 166 59.8117647058824  L 166 83  L 13 83  " fill-rule="nonzero" fill="#169bd5" stroke="none" mask="url(#clip23)" />
  </g>
</svg>