<?xml version="1.0" standalone="no"?><!DOCTYPE svg PUBLIC "-//W3C//DTD SVG 1.1//EN" "http://www.w3.org/Graphics/SVG/1.1/DTD/svg11.dtd"><svg t="1639990841534" class="icon" viewBox="0 0 1024 1024" version="1.1" xmlns="http://www.w3.org/2000/svg" p-id="7690" xmlns:xlink="http://www.w3.org/1999/xlink" width="200" height="200"><defs><style type="text/css"></style></defs><path d="M496.349345 453.123726c-29.810771 0-55.149927 25.339156-55.149927 55.149928s25.339156 55.149927 55.149927 55.149927 55.149927-25.339156 55.149927-55.149927-23.848617-55.149927-55.149927-55.149928z" fill="#ffffff" p-id="7691"></path><path d="M611.120815 202.713246H383.068413c-40.244541 105.828239-65.583697 263.825328-65.583697 442.689956 0 73.03639 4.471616 144.582242 11.924309 208.675401 0 5.962154 1.490539 11.924309 1.490538 16.395924h330.899564c1.490539-8.943231 2.981077-19.377001 2.981077-29.810772 7.452693-59.621543 10.43377-123.714702 10.43377-190.788937v-5.962154c1.490539-175.883552-23.848617-335.371179-64.093159-441.199418z m-114.77147 380.087336c-41.73508 0-74.526929-32.791849-74.526929-74.526928s32.791849-74.526929 74.526929-74.526929 74.526929 32.791849 74.526929 74.526929c1.490539 41.73508-32.791849 74.526929-74.526929 74.526928zM640.931587 962.887918H353.257642l-20.86754-81.979621h329.409025zM810.852984 699.062591l-14.905386 208.6754-120.733624-58.131004v-5.962154c7.452693-59.621543 10.43377-123.714702 10.43377-190.788938l125.20524 46.206696zM496.349345 61.112082c43.225619 0 83.47016 49.187773 114.77147 131.167394H383.068413c31.30131-81.979622 70.055313-131.167394 113.280932-131.167394zM186.317322 703.534207l120.733624-58.131005c0 73.03639 4.471616 144.582242 11.924309 208.675401l-137.129549 52.16885 4.471616-202.713246z" fill="#ffffff" p-id="7692"></path></svg>