<?xml version="1.0" encoding="utf-8"?>
<svg version="1.1" xmlns:xlink="http://www.w3.org/1999/xlink" width="40px" height="40px" xmlns="http://www.w3.org/2000/svg">
  <defs>
    <mask fill="white" id="clip21">
      <path d="M 28 48  C 16.9 48  8 39.1  8 28  L 8 28  C 8 16.9  16.9 8  28 8  L 28 8  C 39.1 8  48 16.9  48 28  L 48 28  C 48 39.1  39.1 48  28 48  " fill-rule="evenodd" />
    </mask>
  </defs>
  <g transform="matrix(1 0 0 1 -8 -8 )">
    <path d="M 8 8  L 48 8  L 48 48  L 8 48  L 8 8  " fill-rule="nonzero" fill="#cccccc" stroke="none" mask="url(#clip21)" />
    <path d="M 11 11  L 45 11  L 45 45  L 11 45  L 11 11  " fill-rule="nonzero" fill="#ffffff" stroke="none" mask="url(#clip21)" />
    <path d="M 31.8 20  C 30.12 20  28.8 18.68  28.8 17  C 28.8 15.32  30.12 14  31.8 14  C 33.48 14  34.8 15.32  34.8 17  C 34.8 18.68  33.48 20  31.8 20  " fill-rule="nonzero" fill="#cccccc" stroke="none" mask="url(#clip21)" />
    <path d="M 12 44  L 12 26.4  L 20 18.4  L 31.2 24.8  L 37.6 23.2  L 44 24.8  L 44 44  L 12 44  " fill-rule="nonzero" fill="#169bd5" stroke="none" mask="url(#clip21)" />
  </g>
</svg>