<?xml version="1.0" encoding="utf-8"?>
<svg version="1.1" xmlns:xlink="http://www.w3.org/1999/xlink" width="10px" height="10px" xmlns="http://www.w3.org/2000/svg">
  <g transform="matrix(1 0 0 1 -172 -133 )">
    <path d="M 177 133  C 179.8 133  182 135.2  182 138  C 182 140.8  179.8 143  177 143  C 174.2 143  172 140.8  172 138  C 172 135.2  174.2 133  177 133  Z " fill-rule="nonzero" fill="#d7d7d7" stroke="none" />
    <path d="M 177 133.5  C 179.52 133.5  181.5 135.48  181.5 138  C 181.5 140.52  179.52 142.5  177 142.5  C 174.48 142.5  172.5 140.52  172.5 138  C 172.5 135.48  174.48 133.5  177 133.5  Z " stroke-width="1" stroke="#797979" fill="none" />
  </g>
</svg>