<?xml version="1.0" encoding="utf-8"?>
<svg version="1.1" xmlns:xlink="http://www.w3.org/1999/xlink" width="10px" height="10px" xmlns="http://www.w3.org/2000/svg">
  <g transform="matrix(1 0 0 1 -155 -206 )">
    <path d="M 160 206  C 162.8 206  165 208.2  165 211  C 165 213.8  162.8 216  160 216  C 157.2 216  155 213.8  155 211  C 155 208.2  157.2 206  160 206  Z " fill-rule="nonzero" fill="#ffffff" stroke="none" />
    <path d="M 160 206.5  C 162.52 206.5  164.5 208.48  164.5 211  C 164.5 213.52  162.52 215.5  160 215.5  C 157.48 215.5  155.5 213.52  155.5 211  C 155.5 208.48  157.48 206.5  160 206.5  Z " stroke-width="1" stroke="#797979" fill="none" />
  </g>
</svg>