<?xml version="1.0" encoding="utf-8"?>
<svg version="1.1" xmlns:xlink="http://www.w3.org/1999/xlink" width="93px" height="67px" xmlns="http://www.w3.org/2000/svg">
  <defs>
    <mask fill="white" id="clip1">
      <path d="M 17 77  C 11.45 77  7 72.55  7 67  L 7 20  C 7 14.45  11.45 10  17 10  L 90 10  C 95.55 10  100 14.45  100 20  L 100 67  C 100 72.55  95.55 77  90 77  " fill-rule="evenodd" />
    </mask>
  </defs>
  <g transform="matrix(1 0 0 1 -7 -10 )">
    <path d="M 7 10  L 100 10  L 100 77  L 7 77  L 7 10  " fill-rule="nonzero" fill="#cccccc" stroke="none" mask="url(#clip1)" />
    <path d="M 12 15  L 95 15  L 95 72  L 12 72  L 12 15  " fill-rule="nonzero" fill="#ffffff" stroke="none" mask="url(#clip1)" />
    <path d="M 60.385 30.1  C 57.571 30.1  55.36 27.889  55.36 25.075  C 55.36 22.261  57.571 20.05  60.385 20.05  C 63.199 20.05  65.41 22.261  65.41 25.075  C 65.41 27.889  63.199 30.1  60.385 30.1  " fill-rule="nonzero" fill="#cccccc" stroke="none" mask="url(#clip1)" />
    <path d="M 14 71  L 14 41.3  L 34 27.8  L 62 47.658064516129  L 78 35.9  L 94 47.658064516129  L 94 71  L 14 71  " fill-rule="nonzero" fill="#169bd5" stroke="none" mask="url(#clip1)" />
  </g>
</svg>