<?xml version="1.0" standalone="no"?><!DOCTYPE svg PUBLIC "-//W3C//DTD SVG 1.1//EN" "http://www.w3.org/Graphics/SVG/1.1/DTD/svg11.dtd"><svg t="1639972000343" class="icon" viewBox="0 0 1024 1024" version="1.1" xmlns="http://www.w3.org/2000/svg" p-id="5212" xmlns:xlink="http://www.w3.org/1999/xlink" width="200" height="200"><defs><style type="text/css"></style></defs><path d="M640 426.666667H384c-23.466667 0-42.666667-19.2-42.666667-42.666667s19.2-42.666667 42.666667-42.666667h256c23.466667 0 42.666667 19.2 42.666667 42.666667s-19.2 42.666667-42.666667 42.666667zM640 597.333333H384c-23.466667 0-42.666667-19.2-42.666667-42.666666s19.2-42.666667 42.666667-42.666667h256c23.466667 0 42.666667 19.2 42.666667 42.666667s-19.2 42.666667-42.666667 42.666666zM554.666667 768h-170.666667c-23.466667 0-42.666667-19.2-42.666667-42.666667s19.2-42.666667 42.666667-42.666666h170.666667c23.466667 0 42.666667 19.2 42.666666 42.666666s-19.2 42.666667-42.666666 42.666667z" p-id="5213" fill="#bfbfbf"></path><path d="M853.333333 119.466667c-4.266667-17.066667-17.066667-29.866667-34.133333-34.133334H682.666667h-10.666667c-2.133333 0-2.133333 0-4.266667 2.133334-2.133333 0-2.133333 0-4.266666 2.133333-2.133333 0-2.133333 2.133333-4.266667 2.133333s-2.133333 2.133333-2.133333 2.133334c-2.133333 0-2.133333 2.133333-4.266667 2.133333l-2.133333 2.133333s-2.133333 2.133333-2.133334 4.266667-2.133333 2.133333-2.133333 4.266667c0 0 0 2.133333-2.133333 2.133333L614.4 170.666667h-202.666667l-29.866666-61.866667s0-2.133333-2.133334-2.133333c0-2.133333-2.133333-2.133333-2.133333-4.266667s-2.133333-2.133333-2.133333-2.133333l-2.133334-2.133334s-2.133333-2.133333-4.266666-2.133333c0 0-2.133333-2.133333-4.266667-2.133333s-2.133333-2.133333-4.266667-2.133334-2.133333-2.133333-4.266666-2.133333-2.133333 0-4.266667-2.133333h-8.533333H213.333333C211.2 85.333333 206.933333 85.333333 204.8 85.333333c-17.066667 4.266667-29.866667 17.066667-34.133333 34.133334V896c0 23.466667 19.2 42.666667 42.666666 42.666667h597.333334c23.466667 0 42.666667-19.2 42.666666-42.666667V128v-8.533333zM768 853.333333H256V170.666667h59.733333l29.866667 61.866666v2.133334c2.133333 2.133333 2.133333 4.266667 4.266667 6.4 0 0 0 2.133333 2.133333 2.133333 2.133333 2.133333 4.266667 4.266667 8.533333 6.4 0 0 2.133333 0 2.133334 2.133333 2.133333 2.133333 4.266667 2.133333 8.533333 4.266667h2.133333c4.266667 0 6.4 2.133333 10.666667 2.133333h256c4.266667 0 6.4 0 10.666667-2.133333h2.133333c2.133333 0 4.266667-2.133333 8.533333-4.266667 0 0 2.133333 0 2.133334-2.133333 2.133333-2.133333 6.4-4.266667 8.533333-6.4 0 0 0-2.133333 2.133333-2.133333 2.133333-2.133333 4.266667-4.266667 4.266667-6.4v-2.133334L708.266667 170.666667H768v682.666666z" p-id="5214" fill="#bfbfbf"></path></svg>